<svg xmlns="http://www.w3.org/2000/svg" viewBox="0 0 200 200" width="200" height="200">
  <defs>
    <linearGradient id="bg" x1="0%" y1="0%" x2="100%" y2="100%">
      <stop offset="0%" style="stop-color:#f0ebe3"/>
      <stop offset="100%" style="stop-color:#e8e0d4"/>
    </linearGradient>
    <linearGradient id="skinTone" x1="0%" y1="0%" x2="0%" y2="100%">
      <stop offset="0%" style="stop-color:#d4a574"/>
      <stop offset="100%" style="stop-color:#c4956a"/>
    </linearGradient>
    <filter id="softShadow" x="-20%" y="-20%" width="140%" height="140%">
      <feDropShadow dx="0" dy="2" stdDeviation="3" flood-color="#000" flood-opacity="0.15"/>
    </filter>
  </defs>
  <circle cx="100" cy="100" r="98" fill="url(#bg)" stroke="#c8a96e" stroke-width="2.5"/>
  <circle cx="100" cy="100" r="93" fill="none" stroke="#c8a96e" stroke-width="0.5" opacity="0.3"/>
  <rect x="85" y="128" width="30" height="18" rx="4" fill="url(#skinTone)"/>
  <path d="M 45 185 Q 45 148 75 140 L 100 135 L 125 140 Q 155 148 155 185 Z" fill="#d6cfc4" filter="url(#softShadow)"/>
  <path d="M 82 140 Q 100 152 118 140" fill="none" stroke="#bfb5a5" stroke-width="1.5"/>
  <line x1="100" y1="150" x2="100" y2="185" stroke="#bfb5a5" stroke-width="1" opacity="0.5"/>
  <ellipse cx="100" cy="95" rx="38" ry="42" fill="url(#skinTone)" filter="url(#softShadow)"/>
  <path d="M 62 85 Q 62 52 100 50 Q 138 52 138 85 Q 135 65 100 62 Q 65 65 62 85 Z" fill="#5a4435"/>
  <path d="M 62 85 Q 60 95 63 108" fill="none" stroke="#5a4435" stroke-width="6" stroke-linecap="round"/>
  <path d="M 138 85 Q 140 95 137 108" fill="none" stroke="#5a4435" stroke-width="6" stroke-linecap="round"/>
  <path d="M 75 112 Q 78 130 100 138 Q 122 130 125 112" fill="#5a4435" opacity="0.8"/>
  <path d="M 78 112 Q 80 126 100 134 Q 120 126 122 112" fill="#6b5545" opacity="0.4"/>
  <path d="M 78 82 Q 86 78 93 81" fill="none" stroke="#3d2e20" stroke-width="2" stroke-linecap="round"/>
  <path d="M 107 81 Q 114 78 122 82" fill="none" stroke="#3d2e20" stroke-width="2" stroke-linecap="round"/>
  <ellipse cx="86" cy="90" rx="6" ry="5" fill="white"/>
  <ellipse cx="114" cy="90" rx="6" ry="5" fill="white"/>
  <circle cx="87" cy="90" r="3" fill="#3a2515"/>
  <circle cx="115" cy="90" r="3" fill="#3a2515"/>
  <circle cx="88" cy="89" r="1.2" fill="white"/>
  <circle cx="116" cy="89" r="1.2" fill="white"/>
  <path d="M 100 92 Q 97 100 94 104 Q 100 106 106 104 Q 103 100 100 92" fill="#b8885e" opacity="0.5"/>
  <path d="M 90 110 Q 100 116 110 110" fill="none" stroke="#b8885e" stroke-width="1.5" stroke-linecap="round" opacity="0.5"/>
  <g transform="translate(100, 165)" opacity="0.6">
    <path d="M -8 -4 Q -8 -8 0 -6 Q 8 -8 8 -4 L 8 4 Q 8 0 0 2 Q -8 0 -8 4 Z" fill="none" stroke="#a08650" stroke-width="1.2"/>
    <line x1="0" y1="-6" x2="0" y2="2" stroke="#a08650" stroke-width="0.8"/>
  </g>
  <text x="100" y="195" text-anchor="middle" font-family="Georgia, serif" font-size="11" fill="#a08650" opacity="0.7" font-weight="bold">PETER</text>
</svg>
